<svg width="45" height="46" viewBox="0 0 45 46" fill="none" xmlns="http://www.w3.org/2000/svg">
<path d="M39.375 30.5V8H5.625V30.5H39.375ZM39.375 4.25C40.3696 4.25 41.3234 4.64509 42.0266 5.34835C42.7299 6.05161 43.125 7.00544 43.125 8V30.5C43.125 31.4946 42.7299 32.4484 42.0266 33.1516C41.3234 33.8549 40.3696 34.25 39.375 34.25H26.25V38H30V41.75H15V38H18.75V34.25H5.625C4.63044 34.25 3.67661 33.8549 2.97335 33.1516C2.27009 32.4484 1.875 31.4946 1.875 30.5V8C1.875 5.91875 3.54375 4.25 5.625 4.25H39.375ZM9.375 11.75H26.25V21.125H9.375V11.75ZM28.125 11.75H35.625V15.5H28.125V11.75ZM35.625 17.375V26.75H28.125V17.375H35.625ZM9.375 23H16.875V26.75H9.375V23ZM18.75 23H26.25V26.75H18.75V23Z" fill="#5364F4"/>
</svg>
