<svg width="45" height="45" viewBox="0 0 45 45" fill="none" xmlns="http://www.w3.org/2000/svg">
<path d="M29.0625 21.5625C29.0625 25.3125 24.375 28.125 24.375 30.9375H20.625C20.625 28.125 15.9375 25.3125 15.9375 21.5625C15.9375 17.9438 18.8813 15 22.5 15C26.1187 15 29.0625 17.9438 29.0625 21.5625ZM24.375 32.8125H20.625V35.625H24.375V32.8125ZM41.25 22.5C41.25 17.325 39.15 12.6375 35.7562 9.24377L33.7688 11.2313C36.6562 14.1188 38.4375 18.1125 38.4375 22.5C38.4375 26.8875 36.6562 30.8813 33.7688 33.7688L35.7562 35.7563C39.15 32.3625 41.25 27.675 41.25 22.5ZM6.5625 22.5C6.5625 18.1125 8.34375 14.1188 11.2312 11.2313L9.24375 9.24377C5.85 12.6375 3.75 17.325 3.75 22.5C3.75 27.675 5.85 32.3625 9.24375 35.7563L11.2312 33.7688C8.34375 30.8813 6.5625 26.8875 6.5625 22.5ZM32.8125 22.5C32.8125 25.35 31.65 27.9188 29.7938 29.7938L31.7813 31.7813C34.1625 29.4 35.625 26.1188 35.625 22.5C35.625 18.8813 34.1625 15.6 31.7813 13.2188L29.7938 15.2063C31.65 17.0813 32.8125 19.65 32.8125 22.5ZM13.2188 31.7813L15.2062 29.7938C13.3312 27.9188 12.1875 25.35 12.1875 22.5C12.1875 19.65 13.35 17.0813 15.2062 15.2063L13.2188 13.2188C10.8375 15.6 9.375 18.8813 9.375 22.5C9.375 26.1188 10.8375 29.4 13.2188 31.7813Z" fill="#5364F4"/>
</svg>
