<svg width="45" height="46" viewBox="0 0 45 46" fill="none" xmlns="http://www.w3.org/2000/svg">
<path d="M33.75 30.3334L41.25 22.8334L33.75 15.3334V20.9584H24.2625C23.625 15.1459 20.025 10.2334 15 7.73962C14.925 4.66462 12.45 2.20837 9.375 2.20837C6.2625 2.20837 3.75 4.72087 3.75 7.83337C3.75 10.9459 6.2625 13.4584 9.375 13.4584C11.1562 13.4584 12.7125 12.6146 13.7437 11.3209C17.3062 13.2709 19.875 16.7771 20.475 20.9584H14.6625C13.875 18.7834 11.8125 17.2084 9.375 17.2084C6.2625 17.2084 3.75 19.7209 3.75 22.8334C3.75 25.9459 6.2625 28.4584 9.375 28.4584C11.8125 28.4584 13.875 26.8834 14.6625 24.7084H20.475C19.875 28.8896 17.3063 32.3959 13.7625 34.3459C12.7125 33.0521 11.1562 32.2084 9.375 32.2084C6.2625 32.2084 3.75 34.7209 3.75 37.8334C3.75 40.9459 6.2625 43.4584 9.375 43.4584C12.45 43.4584 14.925 41.0021 14.9812 37.9271C20.0063 35.4334 23.6063 30.5209 24.2438 24.7084H33.75V30.3334Z" fill="#5364F4"/>
</svg>
