<svg width="45" height="45" viewBox="0 0 45 45" fill="none" xmlns="http://www.w3.org/2000/svg">
<path fill-rule="evenodd" clip-rule="evenodd" d="M22.5 3.75C12.15 3.75 3.75 12.15 3.75 22.5C3.75 32.85 12.15 41.25 22.5 41.25C32.85 41.25 41.25 32.85 41.25 22.5C41.25 12.15 32.85 3.75 22.5 3.75ZM22.5 37.5C14.2313 37.5 7.5 30.7687 7.5 22.5C7.5 14.2313 14.2313 7.5 22.5 7.5C30.7687 7.5 37.5 14.2313 37.5 22.5C37.5 30.7687 30.7687 37.5 22.5 37.5Z" fill="#5364F4"/>
<path fill-rule="evenodd" clip-rule="evenodd" d="M25.2937 21.3374C26.0999 19.0499 25.6124 16.3874 23.7749 14.5499C21.6937 12.4687 18.5437 12.1124 16.0874 13.4437L20.4937 17.8499L17.8499 20.4937L13.4437 16.0874C12.1124 18.5624 12.4687 21.6937 14.5499 23.7749C16.3874 25.6124 19.0499 26.0999 21.3374 25.2937L27.7312 31.6874C28.1062 32.0624 28.6874 32.0624 29.0624 31.6874L31.6874 29.0624C32.0624 28.6874 32.0624 28.1062 31.6874 27.7312L25.2937 21.3374Z" fill="#5364F4"/>
</svg>
