<svg width="45" height="46" viewBox="0 0 45 46" fill="none" xmlns="http://www.w3.org/2000/svg">
<path d="M22.5 4.41663C12.15 4.41663 3.75 12.8166 3.75 23.1666C3.75 33.5166 12.15 41.9166 22.5 41.9166C32.85 41.9166 41.25 33.5166 41.25 23.1666C41.25 12.8166 32.85 4.41663 22.5 4.41663ZM22.5 38.1666C14.2125 38.1666 7.5 31.4541 7.5 23.1666C7.5 14.8791 14.2125 8.16663 22.5 8.16663C30.7875 8.16663 37.5 14.8791 37.5 23.1666C37.5 31.4541 30.7875 38.1666 22.5 38.1666Z" fill="#5364F4"/>
<path d="M13.3125 19.7542C13.8 20.8042 14.0438 21.9292 14.0625 23.1292C14.0813 24.3104 13.8187 25.4729 13.3125 26.6167L15.8813 27.7792C16.575 26.2604 16.9125 24.6854 16.8938 23.0917C16.875 21.5167 16.5375 19.9979 15.8813 18.5917L13.3125 19.7542Z" fill="#5364F4"/>
<path d="M24.9938 14.4104C26.4563 17.3542 27.2063 20.2979 27.2063 23.1104C27.2063 25.9417 26.4563 28.9042 24.9938 31.9042L27.525 33.1417C29.175 29.7479 30.0188 26.3729 30.0188 23.1104C30.0188 19.8479 29.175 16.4917 27.525 13.1542L24.9938 14.4104Z" fill="#5364F4"/>
<path d="M19.125 17.0166C20.1187 19.0229 20.625 21.1604 20.625 23.3916C20.625 25.5854 20.1375 27.5729 19.1625 29.2979L21.6 30.6854C22.8188 28.5291 23.4375 26.0916 23.4375 23.3916C23.4375 20.7291 22.8375 18.1604 21.6375 15.7604L19.125 17.0166Z" fill="#5364F4"/>
</svg>
