<svg width="45" height="46" viewBox="0 0 45 46" fill="none" xmlns="http://www.w3.org/2000/svg">
<path d="M13.125 19.5834C8.98125 19.5834 5.625 22.9396 5.625 27.0834C5.625 31.2271 8.98125 34.5834 13.125 34.5834C17.2688 34.5834 20.625 31.2271 20.625 27.0834C20.625 22.9396 17.2688 19.5834 13.125 19.5834ZM13.125 30.8334C11.0625 30.8334 9.375 29.1459 9.375 27.0834C9.375 25.0209 11.0625 23.3334 13.125 23.3334C15.1875 23.3334 16.875 25.0209 16.875 27.0834C16.875 29.1459 15.1875 30.8334 13.125 30.8334ZM28.1438 28.9584C25.05 28.9584 22.5188 31.4896 22.5188 34.5834C22.5188 37.6771 25.05 40.2084 28.1438 40.2084C31.2375 40.2084 33.7688 37.6771 33.7688 34.5834C33.7688 31.4896 31.2375 28.9584 28.1438 28.9584ZM28.1438 36.4584C27.1125 36.4584 26.2688 35.6146 26.2688 34.5834C26.2688 33.5521 27.1125 32.7084 28.1438 32.7084C29.175 32.7084 30.0188 33.5521 30.0188 34.5834C30.0188 35.6146 29.175 36.4584 28.1438 36.4584ZM30.9375 6.45837C25.2563 6.45837 20.625 11.0896 20.625 16.7709C20.625 22.4521 25.2563 27.0834 30.9375 27.0834C36.6187 27.0834 41.25 22.4521 41.25 16.7709C41.25 11.0896 36.6187 6.45837 30.9375 6.45837ZM30.9375 23.3334C27.3188 23.3334 24.375 20.3896 24.375 16.7709C24.375 13.1521 27.3188 10.2084 30.9375 10.2084C34.5562 10.2084 37.5 13.1521 37.5 16.7709C37.5 20.3896 34.5562 23.3334 30.9375 23.3334Z" fill="#5364F4"/>
</svg>
