<svg width="45" height="46" viewBox="0 0 45 46" fill="none" xmlns="http://www.w3.org/2000/svg">
<path d="M22.5 3.91675C12.15 3.91675 3.75 12.3167 3.75 22.6667C3.75 33.0167 12.15 41.4167 22.5 41.4167C32.85 41.4167 41.25 33.0167 41.25 22.6667C41.25 12.3167 32.85 3.91675 22.5 3.91675ZM13.2563 34.4417C14.0625 32.7542 18.975 31.1042 22.5 31.1042C26.025 31.1042 30.9563 32.7542 31.7438 34.4417C29.1938 36.4668 25.9875 37.6667 22.5 37.6667C19.0125 37.6667 15.8063 36.4668 13.2563 34.4417ZM34.425 31.723C31.7438 28.4605 25.2375 27.3542 22.5 27.3542C19.7625 27.3542 13.2562 28.4605 10.575 31.723C8.6625 29.2105 7.5 26.0792 7.5 22.6667C7.5 14.398 14.2313 7.66675 22.5 7.66675C30.7687 7.66675 37.5 14.398 37.5 22.6667C37.5 26.0792 36.3375 29.2105 34.425 31.723ZM22.5 11.4167C18.8625 11.4167 15.9375 14.3417 15.9375 17.9792C15.9375 21.6167 18.8625 24.5417 22.5 24.5417C26.1375 24.5417 29.0625 21.6167 29.0625 17.9792C29.0625 14.3417 26.1375 11.4167 22.5 11.4167ZM22.5 20.7917C20.9438 20.7917 19.6875 19.5355 19.6875 17.9792C19.6875 16.423 20.9438 15.1667 22.5 15.1667C24.0562 15.1667 25.3125 16.423 25.3125 17.9792C25.3125 19.5355 24.0562 20.7917 22.5 20.7917Z" fill="#5364F4"/>
</svg>
